<?xml version="1.0" standalone="no"?><!DOCTYPE svg PUBLIC "-//W3C//DTD SVG 1.1//EN" "http://www.w3.org/Graphics/SVG/1.1/DTD/svg11.dtd"><svg t="1697272928006" class="icon" viewBox="0 0 1024 1024" version="1.1" xmlns="http://www.w3.org/2000/svg" p-id="2275" width="32" height="32" xmlns:xlink="http://www.w3.org/1999/xlink"><path d="M428 548H296c-99.6 0-180 80.4-180 180s80.4 180 180 180 180-80.4 180-180v-132c0-26.4-21.6-48-48-48z" fill="#3F51B5" p-id="2276"></path><path d="M296 928c-110.4 0-200-89.6-200-200s89.6-200 200-200h132c37.6 0 68 30.4 68 68v132c0 110.4-89.6 200-200 200z m0-360c-88.4 0-160 71.6-160 160s71.6 160 160 160 160-71.6 160-160v-132c0-15.6-12.4-28-28-28H296zM728 548h-132c-26.4 0-48 21.6-48 48v132c0 99.6 80.4 180 180 180s180-80.4 180-180-80.4-180-180-180z" fill="#3F51B5" p-id="2277"></path><path d="M728 928c-110.4 0-200-89.6-200-200v-132c0-37.6 30.4-68 68-68h132c110.4 0 200 89.6 200 200s-89.6 200-200 200z m-132-360c-15.6 0-28 12.4-28 28v132c0 88.4 71.6 160 160 160s160-71.6 160-160-71.6-160-160-160h-132z" fill="#3F51B5" p-id="2278"></path><path d="M596 476h132c99.6 0 180-80.4 180-180s-80.4-180-180-180-180 80.4-180 180v132c0 26.4 21.6 48 48 48z" fill="#3F51B5" p-id="2279"></path><path d="M728 496h-132c-37.6 0-68-30.4-68-68V296c0-110.4 89.6-200 200-200s200 89.6 200 200-89.6 200-200 200z m0-360c-88.4 0-160 71.6-160 160v132c0 15.6 12.4 28 28 28h132c88.4 0 160-71.6 160-160s-71.6-160-160-160z" fill="#3F51B5" p-id="2280"></path><path d="M296 116c-99.6 0-180 80.4-180 180s80.4 180 180 180h132c26.4 0 48-21.6 48-48V296c0-99.6-80.4-180-180-180z" fill="#3F51B5" p-id="2281"></path><path d="M428 496H296c-110.4 0-200-89.6-200-200s89.6-200 200-200 200 89.6 200 200v132c0 37.6-30.4 68-68 68zM296 136c-88.4 0-160 71.6-160 160s71.6 160 160 160h132c15.6 0 28-12.4 28-28V296c0-88.4-71.6-160-160-160z" fill="#3F51B5" p-id="2282"></path></svg>