<?xml version="1.0" standalone="no"?><!DOCTYPE svg PUBLIC "-//W3C//DTD SVG 1.1//EN" "http://www.w3.org/Graphics/SVG/1.1/DTD/svg11.dtd"><svg t="1697271751366" class="icon" viewBox="0 0 1024 1024" version="1.1" xmlns="http://www.w3.org/2000/svg" p-id="4133" xmlns:xlink="http://www.w3.org/1999/xlink" width="200" height="200"><path d="M192.614912 667.327255a0.157166 0.157166 0 0 0 0.078583-0.031433c-0.235749 0.078583-0.424348 0.172883-0.675814 0.282899h0.408632c0.078583-0.062866 0.110016-0.204316 0.188599-0.251466" fill="#9B9B9B" p-id="4134"></path><path d="M518.734567 692.222365h12.526138-12.526138zM473.172115 725.620161l-0.220032-0.864413c-0.188599-1.178746-0.424348-2.388925-0.518648-3.630537a1.71311 1.71311 0 0 1-0.04715-0.408632c0.770114-1.053013 1.571661-2.106026 2.404641-3.159038v-0.015717c-0.817264 1.053013-1.650244 2.121742-2.420358 3.174755l0.04715 0.408632c-0.031433-0.125733-0.078583-0.251466-0.078583-0.377199-5.045032 7.041041-8.282653 14.176382-7.622556 21.013108 1.351628 14.176382-20.321577-4.997882-42.057648-32.674832 21.736071 27.67695 43.409276 46.866931 42.057648 32.690548-0.660098-6.821009 2.577524-13.95635 7.622556-21.013107 0 0.125733 0.04715 0.235749 0.078583 0.377199 0.0943 1.241612 0.330049 2.451791 0.518648 3.630537l0.062867 0.235749-0.062867-0.251466c0.04715 0.298616 0.172883 0.565798 0.235749 0.864413zM493.776591 733.682782h0.04715v-29.625809h-6.522393c4.353501-4.164902 8.769868-8.125487 12.88762-11.834608h12.667587v-11.928906c1.210179-1.304479 2.153176-2.546091 2.891856-3.646254l-0.031433-0.031433a30.946005 30.946005 0 0 1-2.939006 3.693403v11.91319h-12.620438l-0.015716 0.015717c-4.102035 3.70912-8.534119 7.653989-12.88762 11.834607h6.522393v29.610093zM559.094821 721.156644a54.725236 54.725236 0 0 1-2.357491 10.781595v0.047149c0.770114-2.326058 1.383062-4.762133 1.85456-7.213923 0.220033-1.178746 0.377199-2.388925 0.502931-3.614821l0.062867-0.330049-0.04715 0.267183-0.015717 0.062866zM537.751665 704.072689h6.44381l-0.015716-0.015716h-6.428094zM550.827885 733.682782v-22.883384l-0.04715-0.047149v22.930533zM474.790926 731.56104v0.04715c1.508795 4.6364 3.583387 9.209933 6.003745 13.9092h0.031433a95.054057 95.054057 0 0 1-6.035178-13.95635zM480.716088 899.461583v-26.325321l0.125733-0.832981 0.282899-1.933143a83.408049 83.408049 0 0 0-0.298616 1.94886l-0.125733 0.83298v26.309605h0.015717zM537.751665 745.533106h12.98192l0.015717-0.015716h-12.997637zM518.687418 952.756607v15.150812l-1.445929 1.775977 1.461645-1.775977 0.015717-0.015716v-15.135096h-0.031433zM499.686036 774.388802v0.722964h0.015717v-0.722964a9.382816 9.382816 0 0 1-2.200326-0.660098c-0.282899-0.141449-0.502932-0.377199-0.801547-0.518648v0.015717c0.282899 0.141449 0.502932 0.361482 0.770114 0.502931a9.508549 9.508549 0 0 0 2.216042 0.660098zM493.792307 770.569666c0-0.015717 0-0.015717 0 0l-0.015716-0.015717c-0.267182-0.345765-0.565798-0.644381-0.738681-1.005863v-0.015717a212.787181 212.787181 0 0 0-3.819136-7.968321l-0.801547-1.587377c-1.885993-3.66197-3.630537-6.883875-5.375081-10.15293 1.71311 3.221905 3.504804 6.553826 5.359364 10.15293-1.964576-3.834853-3.80342-7.198207-5.610829-10.592995 1.791694 3.363355 3.66197 6.836725 5.610829 10.624428l0.801547 1.587377c1.273045 2.530374 2.577524 5.155048 3.819137 7.984038v0.015717c0.204316 0.345765 0.487215 0.675814 0.754397 1.005863l0.015716-0.031433c0.722964 1.053013 1.728827 1.933143 2.907573 2.64039v-0.015716a9.948614 9.948614 0 0 1-2.907573-2.624674z m-0.770113-1.02158a146.007306 146.007306 0 0 0 0-0.015717v0.015717zM506.742794 775.127483h-0.031433l6.758142 0.455781v0.267183h0.031433v-0.267183zM567.267459 745.548823c-0.487215-0.78583-0.675814-2.011726-0.518648-3.771987a19.488596 19.488596 0 0 0-0.015717-0.015716c-0.157166 1.76026 0.031433 3.001872 0.534365 3.787703zM537.720232 770.569666l0.015717-0.015717-0.015717 0.015717zM550.450686 871.014519a7.182491 7.182491 0 0 0-0.188599-1.163029c0.062866 0.392915 0.157166 0.78583 0.188599 1.163029 0.125733 0.707247 0.235749 1.398778 0.330049 2.121743v26.325321h0.015716v-26.262455l-0.015716-0.094299a24.407895 24.407895 0 0 0-0.330049-2.106026l-2.011726-12.98192 2.011726 12.997636zM437.181079 851.997421zM543.205329 824.524787l-1.257329-7.952604 1.257329 7.952604zM538.443196 769.548086c-0.157166 0.345765-0.455782 0.644381-0.691531 0.958713v0.015717c0.251466-0.330049 0.550081-0.612948 0.707248-0.990147 1.273045-2.813273 2.530374-5.437947 3.771986-7.936888l0.204316-0.377198-0.220033 0.408632c-1.241612 2.498941-2.530374 5.107898-3.771986 7.921171zM537.704515 790.388311v-0.015717a852.767535 852.767535 0 0 1 0 0.015717zM515.748411 775.724714l2.216042 0.125733-2.200325-0.125733zM531.779354 745.51739v28.871412l0.031433-0.015717v-28.855695zM550.780735 911.311907v9.697148c-4.274918 6.946742-8.455536 13.547718-12.667588 19.897229h-0.392915v0.015716h0.392915c4.212051-6.34951 8.424103-12.93477 12.667588-19.881511l0.015716-0.031434-0.015716-9.697148zM512.777972 745.51739h0.04715v29.594376h-0.04715zM559.141971 720.795162l-0.015716-0.031433c-0.031433 0.0943-0.031433 0.204316-0.031434 0.314332l0.04715-0.282899zM402.133039 323.526414c1.351628 9.429966 2.058876 22.176137 2.561807 27.77125a56.831261 56.831261 0 0 0 0.031433-0.015717c-0.534365-5.61083-1.241612-18.357-2.59324-27.786966-1.037296-7.056758-0.565798-13.091936 1.430211-17.901219-1.996009 4.824999-2.467508 10.860177-1.430211 17.932652zM670.431286 386.471437c-6.160911 10.357246-4.824999 25.586641-9.084201 28.981429 4.274918-3.363355 2.939006-18.639899 9.084201-28.981429zM499.701753 869.867207h13.076219v29.594376h0.031433v-29.610093h-13.107652zM512.777972 786.96209h0.031433v29.610093h-0.031433zM653.661663 322.363385c-0.691531 12.463272-1.430211 24.266446-1.571661 35.849587 0.141449-11.583141 0.88013-23.386315 1.571661-35.849587zM518.687418 940.890567h13.091936v0.015717h-13.091936zM518.687418 869.85149h13.091936v0.015717h-13.091936zM512.777972 828.422507h0.031433v29.594376h-0.031433zM855.792983 701.369432c3.064739 15.182245-54.128004 156.00307-62.850723 203.954447-1.775977 9.917181-2.718974 21.641772-3.190472 34.403659a0.031433 0.031433 0 0 0 0.031433-0.031433c0.471498-12.761887 1.398778-24.486478 3.190472-34.387943 8.707002-47.93566 65.884029-188.740768 62.81929-203.93873zM491.497682 804.39181l-1.147312 7.182491-0.361482 2.278908 3.819136-23.574914c-0.581515 3.457654-1.210179 7.32394-1.870277 11.488841l-0.440065 2.624674zM234.483961 905.308162c-8.958468-49.554471-69.813181-197.463487-62.284925-204.080179-7.543973 6.616693 53.279307 154.525708 62.284925 204.080179z" fill="#E6F2FF" p-id="4135"></path><path d="M514.381066 3.206188C233.383798 3.206188 5.587255 231.002732 5.587255 512A506.499187 506.499187 0 0 0 111.894404 823.078859c14.286398-61.200479 30.333057-114.558369 53.232158-120.67213 2.357491-0.660098 4.557817-1.005863 6.679559-1.178746h0.392915c0.062866-0.078583 0.0943-0.204316 0.188599-0.235749l0.062867-0.04715c9.539982-4.212051 172.191178-69.923197 176.041747-60.006017h0.015717c11.803174-4.935016 22.569052-9.901464 31.606102-15.025079v-0.015716c0.015717-0.691531 0-1.430211 0.078583-2.090309 0.707247-5.720846 17.461154-14.412131 32.894865-40.56457 1.257329-2.074593 2.923289-2.184609 5.406514-0.675815 9.760015 5.909445 32.800565 38.002763 97.191515 87.400068l0.031433-0.015717c-64.375234-49.397305-87.415784-81.490622-97.222948-87.400067 4.510667-15.040796 5.579397-29.374344 5.752279-40.75317 0.235749 0.188599 0.392915 0.424348 0.628664 0.612948 15.040796 12.761887 26.073856 21.987537 36.85545 28.50993-10.765878-6.522393-21.783221-15.732326-36.824017-28.50993-0.235749-0.188599-0.424348-0.408632-0.628664-0.612948-38.317095-33.476379-18.985665-102.079381-42.654879-97.757313-23.763514 4.337784-50.953249-61.451945-32.31335-75.942659-5.406514-8.188354-10.907327-41.649016-11.834607-50.7175-2.137459-21.23314-0.298616-36.02247 1.445928-50.638917 3.410504-28.148448 20.494459-64.48525 41.130368-84.555361 15.952359-15.512294 36.038186-26.042423 57.334193-33.507813 41.256101-14.506431 70.080363-12.196089 120.546397-6.098044 9.980047 1.194462 26.592504 6.58526 36.588268 5.657979 11.976057-1.100163 24.675078-15.135095 21.861805-24.517911 30.474507 34.623692 61.231912 54.065138 80.531909 95.588421 19.28428 41.523283 17.178255 108.916106-2.310342 150.34509a12.541855 12.541855 0 0 0-3.049022-0.628664c16.753906 15.999509-9.775731 79.258864-33.162047 74.999662-23.779231-4.337784-4.023452 65.113915-43.220677 98.370262l-7.764006 6.569542a346.786997 346.786997 0 0 1 0.015717 0c0.487215 9.995764 1.90171 21.563189 5.46938 33.602112l-0.015716 0.015717c2.514658-1.508795 4.196335-1.414495 5.437947 0.660098 15.465144 26.152439 32.1719 34.843724 32.863431 40.56457 0.141449 0.92728 0.157166 1.90171 0.157166 2.876139v-0.015716c8.141204 4.526384 17.586886 8.927034 27.928416 13.296252-18.907082 57.884274-70.740461 183.271388-122.652424 271.300119v0.04715a2841.515916 2841.515916 0 0 0 0 0.015717c51.911962-88.044449 103.745342-213.447279 122.652424-271.331553 3.457654-10.121497 166.454615 55.872548 175.758848 60.03745l0.04715 0.015716c0.392915 0.157166 0.581515 0.660098 0.722964 1.320195-0.141449-0.660098-0.345765-1.163029-0.722964-1.335911l-0.04715-0.015717 0.04715 0.015717c2.184609 0.770114 4.070602 1.508795 5.705129 2.247475l0.722964 0.141449c23.182 6.176628 38.61571 60.96473 53.49934 123.045339a506.420603 506.420603 0 0 0 108.177426-313.452067c0-281.012985-227.780827-508.809528-508.793812-508.809529zM512.777972 940.890567h-13.076219v0.015717h13.107652v-29.610093h-0.031433z" fill="#E6F2FF" p-id="4136"></path><path d="M612.861344 582.567578h0.015717l0.015716-0.015716a142.518218 142.518218 0 0 1-5.46938-33.602112c-7.764005 6.53811-14.443564 11.991773-20.761642 16.518157-15.66946 11.253093-29.091445 16.565307-50.356018 17.602603-0.644381 0.031433-1.163029 0.125733-1.823127 0.157166-4.447801 0.157166-9.241367 0.141449-14.474997-0.04715-5.642263 0.204316-10.781594 0.204316-15.528011 0-17.901219-0.770114-30.144458-4.652117-42.749179-12.274672-10.781594-6.522393-21.814655-15.732326-36.85545-28.50993-0.235749-0.188599-0.392915-0.424348-0.628664-0.612948-0.172883 11.378826-1.241612 25.712374-5.752279 40.753169 9.807165 5.909445 32.847715 38.002763 97.222948 87.400068 64.343801-49.365872 87.368634-81.412039 97.144366-87.368635z" fill="#F4CCAF" p-id="4137"></path><path d="M407.382386 788.8638a1790.923412 1790.923412 0 0 0 29.798693 63.149338c11.91319 23.983547 24.187863 47.14983 36.352518 68.037204 2.451791-16.250975 4.872149-32.014734 7.166774-46.898364v0.015717l0.125733-0.83298 0.298616-1.94886 0.078583-0.518648h-0.031433l-0.377199 2.451791 0.361482-2.451791h0.015717c7.213924-46.788348 13.186236-84.00528 15.496577-96.625718v-0.015716l0.031433 0.015716v-0.015716a9.477116 9.477116 0 0 1-2.923289-2.640391v0.031434c-0.267182-0.330049-0.550081-0.660098-0.754397-1.005863v-0.015717c-1.241612-2.82899-2.546091-5.453664-3.819137-7.984038l-0.801547-1.587378c-1.94886-3.787703-3.819136-7.27679-5.610829-10.624428-0.660098-1.241612-1.430211-2.656107-2.04316-3.866286h0.04715a94.331092 94.331092 0 0 1-6.003745-13.9092v0.392916l-0.015716-0.062867v0.062867a54.269454 54.269454 0 0 1-1.791694-6.993892l-0.062866-0.235749c-0.188599-1.178746-0.424348-2.388925-0.518649-3.630537-0.031433-0.141449-0.078583-0.251466-0.078583-0.377198-5.045032 7.056758-8.282653 14.192099-7.622555 21.013107 1.351628 14.176382-20.321577-5.013599-42.057648-32.690549-21.563189-27.456917-43.204961-63.259355-42.529147-83.188016-9.052767 5.123615-19.802928 10.090064-31.606102 15.025079l0.015716 0.015717c11.473125 35.063757 33.083464 90.464806 58.858704 147.909016z" fill="#9B9B9B" p-id="4138"></path><path d="M490.35037 811.574301l-0.801547 4.997882 0.440065-2.718974 0.361482-2.278908zM567.267459 745.548823c-0.502932-0.78583-0.691531-2.027443-0.534365-3.787703a19.33143 19.33143 0 0 0-0.172883-4.353501c-0.707247-5.453664-3.457654-11.048777-7.41824-16.59674v0.015716c-0.015717 0.0943-0.04715 0.204316-0.04715 0.314333a51.723363 51.723363 0 0 1-2.373208 10.84446v0.031434a95.714154 95.714154 0 0 1-5.956595 13.500568h0.015717c-2.341775 4.463517-4.982165 9.194217-7.622556 14.396414 2.68754-5.217914 5.296498-9.901464 7.606839-14.396414h-0.04715v0.015716h0.015717c-2.341775 4.463517-4.982165 9.194217-7.622556 14.396415l-0.691531 1.273045-0.204316 0.377199c-1.241612 2.498941-2.498941 5.123615-3.771986 7.936888-0.157166 0.377199-0.455782 0.660098-0.707247 0.990146v0.015717l-0.031434 0.015716v0.015717a9.2728 9.2728 0 0 1-2.923289 2.640391l-0.031433 0.015716c0.675814 3.677687 1.697394 9.649998 2.939006 17.146822v-0.031434c1.210179 7.213924 2.64039 16.125242 4.243485 26.231022l1.257328 7.952605 0.612948 3.897719 0.88013 5.56368c1.194462 7.606839 2.451791 15.543727 3.75627 24.030696h-0.015717l2.011726 12.98192c0.141449 0.707247 0.251466 1.398778 0.330049 2.106026l0.015717 0.0943v-0.04715l5.815146 38.097062c51.927679-88.028732 103.761058-213.415846 122.652423-271.30012a292.784725 292.784725 0 0 1-27.928416-13.296252v0.031434c0.204316 38.097062-76.649906 130.620745-84.052429 118.880437zM855.022869 700.002087l0.04715 0.015717zM855.070019 700.017804c0.377199 0.172883 0.581515 0.675814 0.722964 1.335912 1.618811 0.204316 3.269055 0.471498 4.982165 0.911563a72.453572 72.453572 0 0 0-5.705129-2.247475z" fill="#9B9B9B" p-id="4139"></path><path d="M172.199036 701.227983h-0.392915a34.985174 34.985174 0 0 0-6.679559 1.178746c-22.914817 6.098045-38.945759 59.455935-53.232158 120.67213a511.591368 511.591368 0 0 0 125.732879 115.784265c-0.502932-12.400405-1.398778-23.889247-3.143322-33.539245-9.005617-49.570188-69.828898-197.479203-62.284925-204.095896zM861.498112 702.406729l-0.722964-0.14145a40.737453 40.737453 0 0 0-4.982165-0.895847c3.064739 15.197962-54.112288 156.00307-62.81929 203.954447-1.775977 9.901464-2.703257 21.626055-3.190472 34.387942a511.261319 511.261319 0 0 0 125.198515-114.244037c-14.852196-62.096326-30.301624-116.884428-53.483624-123.061055z" fill="#939393" p-id="4140"></path><path d="M480.794671 872.303281l0.377199-2.451791h-0.015717l-0.361482 2.451791zM550.796451 873.199128v26.262455h-13.091936v-29.610093h12.557572c0.0943 0.377199 0.157166 0.770114 0.188599 1.163029l-2.011726-12.997636h-10.734445V828.422507h6.113762l-0.612948-3.89772-1.257329-7.952604h-4.227768V790.388311a1166.09387 1166.09387 0 0 0-2.939006-17.162538c-0.251466 0.141449-0.471498 0.361482-0.770114 0.502931a9.492832 9.492832 0 0 1-2.184609 0.660098v-0.015717l-0.031433 0.015717v0.738681h-6.993891l-6.789576 0.455781v0.267183h-0.031433l-2.216042-0.125733-2.247475 0.125733h-0.031433v-0.267183l-6.758143-0.455781h-7.009608v-0.015717h-0.015716v-0.722964a9.508549 9.508549 0 0 1-2.216042-0.660098c-0.267182-0.141449-0.487215-0.361482-0.770114-0.502931l-0.031433-0.015717v0.015717c-2.294625 12.620438-8.282653 49.83737-15.496578 96.625717h12.620438v29.610093h-13.091936V873.136262c-2.294625 14.899346-4.714983 30.663106-7.166774 46.898364l1.241612-8.078338v10.137214l0.015717 0.031433c1.980293 3.347638 3.929152 6.679559 5.909445 9.901464v-20.745925h13.076219v29.610093h-7.606839c4.557817 7.213924 9.068484 14.082082 13.532001 20.463026v-8.628419h13.107653V975.08991c1.477361-1.71311 2.954723-3.56767 4.432084-5.406514 0.487215-0.612948 0.97443-1.163029 1.445928-1.775977v-15.150812h0.031433v-0.015716h11.331676c2.656107-3.787703 5.359364-7.716855 8.046904-11.803174l0.015717-0.015717h-0.392915v-0.015716h-0.015717v-29.610093h13.076219v0.015716h0.015717v9.697148c0.78583-1.273045 1.555944-2.593241 2.326058-3.882002l3.489088-5.830862v-0.04715l-5.815146-38.097063v0.04715z m-57.004144-15.182245h-10.750161c1.618811-10.545845 3.174755-20.447309 4.620684-29.594376h6.129477v29.594376z m0-41.4447h-4.259201l0.801547-4.997882 1.147313-7.182491 0.424348-2.624674 1.870277-11.488841v26.293888z m19.017098 124.334101h-13.107652V911.280474h13.076219v0.015717h0.031433v29.610093z m0-41.444701h-0.031433v0.015717h-13.076219V869.85149h13.107652v29.610093z m0-41.4447h-13.107652V828.422507h13.107652v29.594376z m0-41.4447h-13.107652v-29.610093h13.107652v29.610093z m18.969949 94.724008v29.610093h-13.091936V911.280474l13.091936 0.015717z m0-41.428984v29.610093h-13.091936V869.85149h13.091936v0.015717z m0-11.850324h-13.091936V828.422507h13.091936v29.594376z m0-41.4447h-13.091936v-29.610093h13.091936v29.610093z" fill="#EEEEEE" p-id="4141"></path><path d="M493.022194 769.548086v-0.015717a180.913896 180.913896 0 0 0 0 0.015717zM472.354852 720.716579l-0.031434 0.031433c0 0.125733 0.04715 0.251466 0.078583 0.377199a1.917426 1.917426 0 0 1-0.047149-0.408632zM559.110538 721.109494l0.04715-0.267182v-0.015717l-0.015717-0.015716a1.728827 1.728827 0 0 0-0.031433 0.282899v0.015716zM499.701753 774.388802v-28.871412h13.123369v29.594376h-0.04715v0.015717h-6.035178l6.758142 0.455781v0.267183l2.247475-0.125733h0.015717l2.200325 0.125733h0.031434v-0.267183l6.789575-0.455781h-6.098044v-29.610093h13.123369v28.871412a9.492832 9.492832 0 0 0 2.184609-0.660098c0.298616-0.141449 0.518648-0.361482 0.770113-0.502931l0.031434-0.015717a9.2728 9.2728 0 0 0 2.923289-2.64039l0.031433-0.015717v-0.031433l-0.04715 0.062866v-25.036559h0.04715v-0.015717h13.02907a95.714154 95.714154 0 0 0 5.956595-13.500568v-0.078583l-0.015717 0.062867-0.031433 0.015716v-14.443564a99.643307 99.643307 0 0 0-5.862295-6.773859v22.883384h-13.12337v-29.610093h0.04715v-0.015717h6.428094a515.033306 515.033306 0 0 0-12.903337-11.81889l-0.015717-0.015717h-12.541854v-11.881757a32.847715 32.847715 0 0 1-2.97044-3.693403 27.189735 27.189735 0 0 1-2.891856 3.646253v11.928907h-12.667587c-4.117752 3.70912-8.534119 7.669706-12.88762 11.834607h6.522393v29.62581h-13.12337v-22.961967a105.521319 105.521319 0 0 0-5.925161 6.821009v0.015716l0.015716-0.015716v14.019216c1.524511 4.652117 3.599104 9.241367 6.035178 13.956349h12.966203v25.052276a9.555699 9.555699 0 0 0 2.907573 2.624674v0.015717c0.298616 0.141449 0.518648 0.377199 0.801547 0.518648 0.691531 0.314332 1.445928 0.487215 2.200326 0.644381z m18.985665-70.316113h13.091936v29.62581h-13.091936v-29.62581z m-18.985665 0h13.107652v29.62581h-13.107652v-29.62581zM493.776591 770.553949l0.015716 0.015717-0.015716-0.015717zM472.92065 724.755748l0.062866 0.251466c0.455782 2.373208 1.02158 4.7307 1.791694 6.993891v-0.062866a53.153575 53.153575 0 0 1-1.618811-6.318078c-0.04715-0.298616-0.172883-0.565798-0.235749-0.864413z" fill="#FFFFFF" p-id="4142"></path><path d="M483.042146 749.823741l-2.278908-4.306351h-0.015717l2.04316 3.866286c1.80741 3.394788 3.646253 6.758142 5.610829 10.592995-1.838843-3.61482-3.646253-6.946742-5.359364-10.15293zM550.796451 745.51739c-2.326058 4.49495-4.935016 9.1785-7.622555 14.396414 2.64039-5.202198 5.280781-9.932897 7.622555-14.396414z" fill="#FFFFFF" p-id="4143"></path><path d="M512.777972 775.127483v-29.610093h-13.076219V775.127483h7.041041zM499.701753 786.96209h13.076219v29.610093h-13.076219zM512.809405 733.698499v-29.62581h-13.107652v29.62581h13.076219zM499.701753 828.422507h13.076219v29.594376h-13.076219zM512.809405 952.725174h-13.107652v8.644136l0.015716 0.015716c3.897719 5.579397 7.716855 10.718728 11.488842 15.528011l1.555945-1.760261 0.047149-0.062866V952.725174zM512.777972 911.296191v-0.015717h-13.076219v29.610093h13.076219zM499.701753 869.867207v29.610093h13.076219v-29.610093zM473.549314 920.050342l0.015717 0.015717v0.015716l1.225895 2.027443v-10.137213l-1.241612 8.078337zM493.776591 733.682782v-29.610093h-6.522393c-2.294625 2.184609-4.447801 4.400651-6.553827 6.648126v22.961967h13.07622zM474.790926 717.541824l-0.015716 0.015717a105.034104 105.034104 0 0 0-2.404642 3.159038c0 0.141449 0.015717 0.282899 0.04715 0.408632 0.0943 1.241612 0.330049 2.451791 0.518648 3.630537l0.220033 0.864413c0.440065 2.153176 0.92728 4.274918 1.618811 6.318078l0.015716 0.062866v-0.392915-0.04715-14.019216zM488.417227 759.976671l0.801547 1.587377c1.273045 2.530374 2.546091 5.155048 3.819136 7.968321v0.015717c0.172883 0.345765 0.471498 0.660098 0.738681 1.005863l0.015716 0.015717v-25.052276h-13.029069l2.278908 4.306351c1.744544 3.269055 3.489087 6.49096 5.375081 10.15293zM493.776591 911.296191h-13.07622v20.745925l0.015717 0.031433c1.823127 3.001872 3.646253 5.940879 5.453664 8.832735h7.606839v-29.610093zM480.716088 873.136262v26.325321h13.076219v-29.610093h-12.589004l-0.078583 0.518648a40.910336 40.910336 0 0 0-0.282899 1.933143l-0.125733 0.832981zM489.533106 816.572183h4.259201v-26.293888l-3.819136 23.574914-0.440065 2.718974zM483.042146 858.016883h10.750161V828.422507h-6.129477c-1.445928 9.147067-3.001872 19.048531-4.620684 29.594376zM550.780735 921.009055v-9.712864h-13.07622v29.610093H538.113147c4.212051-6.34951 8.39267-12.950487 12.667588-19.897229zM550.450686 871.030236c-0.031433-0.392915-0.125733-0.78583-0.188599-1.178746h-12.557572v29.610093h13.07622v-26.325321a42.167664 42.167664 0 0 0-0.330049-2.106026zM512.777972 680.309175c-1.477361 1.603094-3.300488 3.379071-5.296497 5.249348l-0.487215 0.471498c-2.090309 1.94886-4.400651 4.023452-6.836726 6.192344h12.620438v-11.91319zM518.734567 692.222365h12.526138a197.196304 197.196304 0 0 1-12.541854-11.881757v11.881757h0.015716zM518.687418 828.422507h13.091936v29.594376h-13.091936zM518.687418 911.296191v29.594376h13.091936v-29.610093h-13.091936zM518.687418 899.461583v0.015717h13.091936v-29.610093h-13.091936zM531.779354 745.51739h-13.091936v29.610093h13.091936v-0.754398zM518.687418 786.96209h13.091936v29.610093h-13.091936zM518.718851 952.756607v15.135096c3.724837-4.714983 7.481106-9.760015 11.315959-15.135096l0.015716-0.015716-11.331675 0.015716zM518.687418 704.072689h13.091936v29.62581h-13.091936zM537.704515 816.572183h4.227769c-1.603094-10.10578-3.033306-19.017098-4.243485-26.231022V816.572183zM537.704515 745.533106v25.03656l0.04715-0.062867c0.235749-0.314332 0.534365-0.597231 0.691531-0.958713 1.241612-2.813273 2.530374-5.42223 3.771986-7.936888l0.220033-0.408632 0.691531-1.273045c2.64039-5.202198 5.280781-9.932897 7.622556-14.396415h-13.044787zM556.721613 732.001105l0.015717-0.062866a54.725236 54.725236 0 0 0 2.357491-10.781595v-0.04715-0.031433c0-0.110016 0-0.220033 0.031434-0.314332a215.003223 215.003223 0 0 0-2.436075-3.190472v14.443565l0.031433-0.015717zM537.704515 704.072689v29.610093h13.07622v-22.930533a187.954938 187.954938 0 0 0-6.58526-6.67956h-6.49096zM537.704515 828.422507v29.594376h10.750162c-1.304479-8.486969-2.561807-16.423857-3.75627-24.030696l-0.88013-5.56368h-6.113762z" p-id="4144"></path><path d="M464.700863 741.76112c-0.660098-6.836725 2.577524-13.972066 7.622555-21.013108l0.031434-0.031433c0.770114-1.053013 1.603094-2.121742 2.420358-3.174755 1.791694-2.294625 3.819136-4.557817 5.925161-6.821009 2.106026-2.247475 4.259201-4.463517 6.553827-6.648126 4.353501-4.180618 8.785585-8.125487 12.88762-11.834607l0.015716-0.015717c2.436075-2.168892 4.746416-4.243485 6.836726-6.192344l0.487215-0.471498c1.996009-1.870277 3.819136-3.646253 5.296497-5.249348 1.225896-1.320195 2.168892-2.561807 2.939006-3.693403l0.031433 0.031433c0.801547 1.147313 1.728827 2.357491 2.97044 3.693403 3.143322 3.410504 7.559689 7.433956 12.541854 11.881757l0.015717 0.015717c4.149185 3.70912 8.549836 7.653989 12.903337 11.818891l0.015716 0.015716c2.294625 2.200325 4.447801 4.416367 6.58526 6.67956l0.04715 0.047149a99.643307 99.643307 0 0 1 8.314086 9.995764l0.015717 0.015717c3.960586 5.547963 6.695276 11.143076 7.41824 16.59674 0.188599 1.461645 0.314332 2.923289 0.188599 4.369217-0.157166 1.744544 0.015717 2.986156 0.518648 3.771987 7.402523 11.740308 84.241029-80.783375 84.068146-118.864721v-0.015716c0-0.97443-0.015717-1.94886-0.157166-2.87614-0.691531-5.720846-17.398287-14.412131-32.863431-40.56457-1.241612-2.090309-2.923289-2.168892-5.437947-0.660098h-0.015716c-9.775731 5.956595-32.816281 38.002763-97.144366 87.368635l-0.031433 0.015716c-64.390951-49.397305-87.431501-81.490622-97.191516-87.400067-2.483224-1.508795-4.149185-1.398778-5.406514 0.675814-15.433711 26.152439-32.187617 34.843724-32.894864 40.56457-0.078583 0.660098-0.062866 1.398778-0.078583 2.090309v0.015717c-0.675814 19.928661 20.965958 55.731099 42.529146 83.188016 21.736071 27.67695 43.39356 46.851214 42.041932 32.674832z" fill="#828282" p-id="4145"></path><path d="M511.190595 976.94447l0.015716-0.031433a333.380729 333.380729 0 0 1-11.488842-15.528011l-0.015716-0.015716a514.87614 514.87614 0 0 1-13.532001-20.463026 808.509562 808.509562 0 0 1-5.453664-8.832735l-0.015717-0.031433c-1.980293-3.237622-3.929152-6.553826-5.909445-9.901465l-0.015716-0.031433-1.225896-2.027443v-0.015716l-0.015717-0.015717a1169.960156 1169.960156 0 0 1-36.352518-68.037204 1790.923412 1790.923412 0 0 1-29.798693-63.149338c-25.77524-57.428492-47.401295-112.845259-58.858704-147.909016l-0.015716-0.015717h-0.015717c-3.850569-9.917181-166.501765 55.793965-176.041747 60.006017l-0.062867 0.04715c-0.0943 0.031433-0.125733 0.157166-0.188599 0.235749-7.528256 6.616693 53.326457 154.525708 62.284925 204.080179 1.744544 9.649998 2.64039 21.13884 3.143322 33.539246a505.666206 505.666206 0 0 0 239.678301 80.453326c0.97443-9.508549 2.168892-15.417994 3.630537-16.172392 9.429966-4.777849 19.598613-13.924916 30.254474-26.183872z" fill="#292629" p-id="4146"></path><path d="M855.792983 701.353716c-0.141449-0.660098-0.330049-1.163029-0.722964-1.320195l-0.04715-0.015717c-9.304233-4.164902-172.301194-70.158946-175.758848-60.03745-18.907082 57.884274-70.740461 183.287104-122.652424 271.331553l-3.489087 5.815146-2.326059 3.882002-0.015716 0.031434c-4.259201 6.946742-8.471253 13.532001-12.667588 19.881511l-0.015716 0.015717c-2.703257 4.086319-5.406514 8.015471-8.046905 11.803174l-0.015716 0.015716c-3.834853 5.359364-7.591123 10.420112-11.315959 15.135096l-0.015717 0.015716-1.461645 1.775977c-1.477361 1.838843-2.954723 3.693403-4.432084 5.406514l-0.047149 0.062866c-0.534365 0.597231-1.005863 1.178746-1.555945 1.760261l-0.015716 0.031433c-10.655861 12.258956-20.824508 21.406023-30.254474 26.183872-1.461645 0.754397-2.656107 6.663843-3.630537 16.172392 12.258956 0.88013 24.596494 1.493078 37.075482 1.493078 101.497867 0 195.986125-29.845842 275.370722-81.066274 0.471498-12.761887 1.414495-24.486478 3.190472-34.403659 8.722718-47.951377 65.915462-188.772201 62.850723-203.970163z" fill="#1A1A1B" p-id="4147"></path><path d="M520.007613 583.180526c5.233631 0.188599 10.027197 0.204316 14.474997 0.04715 0.660098-0.015717 1.178746-0.125733 1.823127-0.157166 21.264573-1.037296 34.670841-6.34951 50.356018-17.602603 6.302361-4.526384 12.98192-9.980047 20.745925-16.518157l7.764006-6.569543c39.197225-33.256347 19.441446-102.708046 43.220677-98.370261 23.370599 4.259201 49.915953-59.000153 33.162047-74.999663H691.538693c-6.098045-0.581515-11.378826 3.599104-16.298125 10.184364-1.634527 2.200325-3.237622 4.652117-4.809282 7.27679-6.145194 10.341529-4.809283 25.618074-9.084201 28.981429a3.143322 3.143322 0 0 1-2.216042 0.675814c-5.909445-20.007244-7.292507-38.631427-7.041041-57.915708 0.141449-11.567425 0.88013-23.370599 1.571661-35.849587-65.60113 19.252847-133.166835 29.248611-187.813488-10.89161-11.190226-8.188354-22.034687-19.032815-38.992909-18.734199-12.258956 0.204316-19.928661 4.824999-23.292016 12.856186-2.011726 4.809283-2.467508 10.860177-1.430211 17.901219 1.351628 9.429966 2.058876 22.176137 2.59324 27.786966 0.534365 5.453664-0.110016 11.253093-1.304478 16.895356-3.064739 14.585014-10.24723 28.085582-13.484852 31.417503-2.923289 3.001872-10.042914 15.512294-14.317831 16.54959-3.489087 0.848697-1.115879-19.567179-12.809037-37.216932-9.209933-13.924916-13.484851-10.844461-13.500568-10.828744v-0.015717c-18.639899 14.474998 8.549836 80.264727 32.31335 75.942659 23.669214-4.322068 4.337784 64.280934 42.654879 97.757314 0.204316 0.204316 0.392915 0.424348 0.628664 0.612948 15.025079 12.777604 26.058139 21.987537 36.824017 28.50993 12.604721 7.638272 24.84796 11.504558 42.749179 12.274672 4.746416 0.204316 9.885748 0.204316 15.528011 0z" fill="#FCD4B5" p-id="4148"></path><path d="M362.810081 378.927464c11.693158 17.649753 9.31995 38.065629 12.809037 37.216932 4.274918-1.037296 11.394542-13.547718 14.317831-16.54959 3.237622-3.331921 10.435829-16.832489 13.484852-31.417503 1.178746-5.642263 1.80741-11.425975 1.273045-16.879639-0.502932-5.595113-1.210179-18.341284-2.561807-27.77125-1.037296-7.072474-0.581515-13.107653 1.430211-17.932652 3.347638-8.031188 11.017344-12.651871 23.292016-12.856186 16.958222-0.298616 27.802683 10.545845 38.992909 18.734199 54.646653 40.140222 122.212358 30.144458 187.813488 10.89161-0.691531 12.463272-1.430211 24.266446-1.571661 35.849587-0.251466 19.28428 1.147313 37.92418 7.041041 57.915708a3.143322 3.143322 0 0 0 2.216042-0.675814c4.259201-3.394788 2.923289-18.624183 9.084201-28.981429 1.571661-2.64039 3.174755-5.092182 4.809282-7.27679 4.919299-6.569543 10.20008-10.765878 16.298125-10.184364h0.015717a12.541855 12.541855 0 0 1 3.049022 0.628665c19.488596-41.428984 21.594622-108.821807 2.310342-150.34509-19.299997-41.523283-50.057402-60.96473-80.531909-95.588422 2.813273 9.382816-9.885748 23.417749-21.861805 24.517912-9.995764 0.92728-26.608221-4.463517-36.588268-5.65798-50.466034-6.098045-79.290297-8.408386-120.546397 6.098045-21.296006 7.46539-41.381834 17.995518-57.334193 33.507812-20.635909 20.070111-37.719864 56.406913-41.130368 84.555361-1.744544 14.616447-3.583387 29.405777-1.445928 50.638917 0.92728 9.084201 6.428093 42.544863 11.834607 50.7175v0.015717c0.015717-0.015717 4.290634-3.096172 13.500568 10.828744z" fill="#554C44" p-id="4149"></path></svg>